<svg xmlns="http://www.w3.org/2000/svg" width="512" height="512" viewBox="0 0 512 512" version="1.1"><path d="M 110.505 220.980 L 75.511 256 110.500 291 L 145.489 326 165.495 325.958 L 185.500 325.915 157.750 298.517 C 142.488 283.448, 130 270.867, 130 270.559 C 130 270.252, 147.339 270, 168.532 270 L 207.064 270 210.303 271.353 L 213.541 272.706 234.520 294.461 C 256.970 317.739, 260.886 321.036, 269.673 324.060 L 275.313 326 320.912 326 L 366.511 326 401.500 291 L 436.489 256 401.500 221 L 366.511 186 346.505 186.033 L 326.500 186.066 354.250 213.555 C 369.512 228.674, 382 241.260, 382 241.522 C 382 241.785, 364.704 242, 343.565 242 L 305.130 242 302.315 240.987 C 300.767 240.429, 288.700 228.999, 275.500 215.587 L 251.500 191.200 245.500 188.850 L 239.500 186.500 192.500 186.230 L 145.500 185.959 110.505 220.980 M 143.746 227.301 C 136.181 234.560, 129.994 240.815, 129.996 241.200 C 129.998 241.585, 149.238 242.035, 172.750 242.200 L 215.500 242.500 222.086 245.621 L 228.671 248.741 234.763 254.621 C 238.114 257.854, 248.155 268.150, 257.077 277.500 C 266 286.850, 274.695 295.269, 276.400 296.208 L 279.500 297.916 316.831 297.958 L 354.161 298 368.067 284.750 C 375.715 277.462, 381.979 271.163, 381.986 270.750 C 381.994 270.337, 363.873 270, 341.718 270 L 301.436 270 296.288 268.665 C 293.457 267.930, 288.661 265.827, 285.630 263.990 L 280.120 260.650 259.351 239.075 C 247.928 227.209, 237.214 216.731, 235.541 215.792 L 232.500 214.084 195 214.093 L 157.500 214.102 143.746 227.301" stroke="none" fill="#063582" fill-rule="evenodd"/><path d="M 0 256.002 L 0 512.004 256.250 511.752 L 512.500 511.500 512.752 255.750 L 513.004 0 256.502 0 L 0 0 0 256.002 M 0.492 256.500 C 0.492 397.300, 0.608 454.751, 0.750 384.170 C 0.892 313.588, 0.892 198.388, 0.750 128.170 C 0.608 57.951, 0.492 115.700, 0.492 256.500 M 110.505 220.980 L 75.511 256 110.500 291 L 145.489 326 165.495 325.958 L 185.500 325.915 157.750 298.517 C 142.488 283.448, 130 270.867, 130 270.559 C 130 270.252, 147.339 270, 168.532 270 L 207.064 270 210.303 271.353 L 213.541 272.706 234.520 294.461 C 256.970 317.739, 260.886 321.036, 269.673 324.060 L 275.313 326 320.912 326 L 366.511 326 401.500 291 L 436.489 256 401.500 221 L 366.511 186 346.505 186.033 L 326.500 186.066 354.250 213.555 C 369.512 228.674, 382 241.260, 382 241.522 C 382 241.785, 364.704 242, 343.565 242 L 305.130 242 302.315 240.987 C 300.767 240.429, 288.700 228.999, 275.500 215.587 L 251.500 191.200 245.500 188.850 L 239.500 186.500 192.500 186.230 L 145.500 185.959 110.505 220.980 M 143.746 227.301 C 136.181 234.560, 129.994 240.815, 129.996 241.200 C 129.998 241.585, 149.238 242.035, 172.750 242.200 L 215.500 242.500 222.086 245.621 L 228.671 248.741 234.763 254.621 C 238.114 257.854, 248.155 268.150, 257.077 277.500 C 266 286.850, 274.695 295.269, 276.400 296.208 L 279.500 297.916 316.831 297.958 L 354.161 298 368.067 284.750 C 375.715 277.462, 381.979 271.163, 381.986 270.750 C 381.994 270.337, 363.873 270, 341.718 270 L 301.436 270 296.288 268.665 C 293.457 267.930, 288.661 265.827, 285.630 263.990 L 280.120 260.650 259.351 239.075 C 247.928 227.209, 237.214 216.731, 235.541 215.792 L 232.500 214.084 195 214.093 L 157.500 214.102 143.746 227.301" stroke="none" fill="#fbcb34" fill-rule="evenodd"/></svg>